<svg width="22" height="24" viewBox="0 0 22 24" fill="none" xmlns="http://www.w3.org/2000/svg">
<path d="M1.39999 5.3998H20.6M8.59999 17.3998V10.1998M13.4 17.3998V10.1998M15.8 22.1998H6.19999C4.87451 22.1998 3.79999 21.1253 3.79999 19.7998V6.5998C3.79999 5.93706 4.33725 5.3998 4.99999 5.3998H17C17.6627 5.3998 18.2 5.93706 18.2 6.5998V19.7998C18.2 21.1253 17.1255 22.1998 15.8 22.1998ZM8.59999 5.3998H13.4C14.0627 5.3998 14.6 4.86255 14.6 4.1998V2.9998C14.6 2.33706 14.0627 1.7998 13.4 1.7998H8.59999C7.93725 1.7998 7.39999 2.33706 7.39999 2.9998V4.1998C7.39999 4.86255 7.93725 5.3998 8.59999 5.3998Z" stroke="black" stroke-width="2" stroke-linecap="round" stroke-linejoin="round"/>
</svg>
