<svg width="24" height="24" viewBox="0 0 24 24" fill="none" xmlns="http://www.w3.org/2000/svg">
<path d="M16.0254 20.5708L16.0257 17.3571C16.0259 15.5819 14.5869 14.1427 12.8117 14.1427H5.61444C3.83951 14.1427 2.40059 15.5815 2.40039 17.3564L2.40002 20.5708M21.5997 20.571L21.6 17.3572C21.6002 15.5821 20.1612 14.1429 18.386 14.1429M15.4064 4.06061C16.1957 4.64624 16.7072 5.5851 16.7072 6.64343C16.7072 7.70176 16.1957 8.64061 15.4064 9.22625M12.4938 6.64325C12.4938 8.41833 11.0548 9.85731 9.27977 9.85731C7.50469 9.85731 6.06571 8.41833 6.06571 6.64325C6.06571 4.86818 7.50469 3.4292 9.27977 3.4292C11.0548 3.4292 12.4938 4.86818 12.4938 6.64325Z" stroke="black" stroke-width="2" stroke-linecap="round" stroke-linejoin="round"/>
</svg>
